<svg width="196" height="52" viewBox="0 0 196 52" fill="none" xmlns="http://www.w3.org/2000/svg">
<g id="Social">
<g id="Facebook">
<circle id="Ellipse 731" cx="26" cy="26" r="26" fill="#4F77FF"/>
<path id="Vector" d="M27.6497 35.893V26.0503H30.6079L31 22.5862H27.6497L27.6547 20.8522C27.6547 19.9487 27.7462 19.4648 29.1297 19.4648H30.9793V16H28.0204C24.4663 16 23.2155 17.6804 23.2155 20.5068V22.5864H21V26.0509H23.2155V35.7535C24.0786 35.9148 24.9709 36 25.8846 36C26.4748 36 27.0644 35.9643 27.6497 35.893Z" fill="white"/>
</g>
<g id="Twitter">
<circle id="Ellipse 731_2" cx="98" cy="26" r="26" fill="#4F77FF"/>
<path id="Vector_2" d="M111 18.3677C110.033 18.7692 109.003 19.0354 107.929 19.1646C109.034 18.54 109.877 17.5585 110.274 16.3754C109.243 16.9569 108.106 17.3677 106.894 17.5969C105.915 16.6108 104.521 16 103 16C100.049 16 97.6734 18.2677 97.6734 21.0477C97.6734 21.4477 97.7091 21.8323 97.7969 22.1985C93.3655 21.9938 89.4444 19.9831 86.8102 16.92C86.3504 17.6754 86.0806 18.54 86.0806 19.4708C86.0806 21.2185 87.0312 22.7677 88.4483 23.6646C87.5919 23.6492 86.7517 23.4138 86.04 23.0431C86.04 23.0585 86.04 23.0785 86.04 23.0985C86.04 25.5508 87.8876 27.5877 90.3105 28.0569C89.8766 28.1692 89.4037 28.2231 88.913 28.2231C88.5717 28.2231 88.2272 28.2046 87.9039 28.1369C88.5945 30.1354 90.5543 31.6046 92.8845 31.6523C91.071 32.9954 88.7684 33.8046 86.2756 33.8046C85.8385 33.8046 85.4192 33.7862 85 33.7354C87.3611 35.1769 90.1594 36 93.177 36C102.986 36 108.348 28.3077 108.348 21.64C108.348 21.4169 108.34 21.2015 108.329 20.9877C109.386 20.2769 110.275 19.3892 111 18.3677Z" fill="white"/>
</g>
<g id="LinkedIn">
<circle id="Ellipse 731_3" cx="170" cy="26" r="26" fill="#4F77FF"/>
<path id="Vector_3" d="M160 18.3232C160 17.6498 160.236 17.0943 160.709 16.6566C161.182 16.2188 161.797 16 162.554 16C163.297 16 163.899 16.2155 164.358 16.6465C164.831 17.0909 165.068 17.67 165.068 18.3838C165.068 19.0303 164.838 19.569 164.378 20C163.905 20.4444 163.284 20.6667 162.514 20.6667H162.493C161.75 20.6667 161.149 20.4444 160.689 20C160.23 19.5556 160 18.9966 160 18.3232ZM160.264 36V22.5051H164.764V36H160.264ZM167.257 36H171.757V28.4646C171.757 27.9933 171.811 27.6296 171.919 27.3737C172.108 26.9158 172.395 26.5286 172.78 26.2121C173.166 25.8956 173.649 25.7374 174.23 25.7374C175.743 25.7374 176.5 26.7542 176.5 28.7879V36H181V28.2626C181 26.2694 180.527 24.7576 179.581 23.7273C178.635 22.697 177.385 22.1818 175.831 22.1818C174.088 22.1818 172.73 22.9293 171.757 24.4242V24.4646H171.736L171.757 24.4242V22.5051H167.257C167.284 22.936 167.297 24.2761 167.297 26.5253C167.297 28.7744 167.284 31.9326 167.257 36Z" fill="white"/>
</g>
</g>
</svg>
